#!OML:ASF F:\VICON\USERDATA\INSTALL\rory3\rory3.ASF
:FULLY-SPECIFIED
:DEGREES
1113
root 10.5938 8.11615 -7.10507 185.103 46.5073 187.204
lowerback 34.3279 5.13796 2.53706
upperback 10.2908 9.72797 3.45731
thorax -6.15831 5.4514 -1.21253
lowerneck -9.9085 -8.46213 -13.0797
upperneck 33.8206 -8.0081 4.21809
head 14.0012 -3.89359 2.90651
rclavicle 1.66979e-014 -1.00187e-013
rhumerus 9.13924 -16.9726 -93.5659
rradius 15.6659
rwrist 30.1657
rhand -52.4156 -12.8492
rfingers 7.12502
rthumb -24.9058 -41.2465
lclavicle 1.66979e-014 -1.00187e-013
lhumerus -39.6118 -38.2616 103.53
lradius 100.928
lwrist -30.7712
lhand -49.6639 17.0958
lfingers 7.12502
lthumb -22.2665 45.833
rfemur -125.667 -65.6971 63.443
rtibia 151.019
rfoot -22.6708 29.3868
rtoes 3.51932
lfemur -102.657 53.8031 -27.5077
ltibia 149.616
lfoot -35.0047 -23.0298
ltoes -30.2265
1114
root 10.5665 8.26686 -7.08461 185.317 46.4903 187.215
lowerback 34.4287 5.07517 2.69337
upperback 10.2419 9.69925 3.43768
thorax -6.2232 5.43337 -1.31411
lowerneck -10.0641 -8.47781 -13.2081
upperneck 33.9198 -8.02696 4.36661
head 14.099 -3.89888 2.98286
rclavicle -5.24792e-014 -3.4191e-014
rhumerus 9.23603 -16.8316 -93.455
rradius 15.8942
rwrist 30.0159
rhand -51.8615 -13.2745
rfingers 7.12502
rthumb -24.3747 -41.7443
lclavicle -5.24792e-014 -3.4191e-014
lhumerus -39.371 -37.9693 103.309
lradius 100.809
lwrist -28.8641
lhand -48.7075 12.6001
lfingers 7.12502
lthumb -21.3481 41.4441
rfemur -121.647 -64.8304 59.9662
rtibia 149.873
rfoot -21.842 30.2673
rtoes 7.49194
lfemur -100.968 51.3443 -26.3082
ltibia 148.428
lfoot -33.5187 -23.7273
ltoes -27.7615
1115
root 10.5415 8.41666 -7.06245 185.398 46.6501 187.039
lowerback 34.5228 5.10278 2.61803
upperback 10.1933 9.69631 3.38775
thorax -6.31159 5.42258 -1.33883
lowerneck -10.1639 -8.44115 -13.4414
upperneck 33.9361 -7.97716 4.56674
head 14.1488 -3.88325 3.10943
rclavicle 8.82604e-014 -5.80451e-014
rhumerus 9.47275 -16.7339 -93.5125
rradius 16.1059
rwrist 30.0736
rhand -50.8912 -15.1953
rfingers 7.12502
rthumb -23.4442 -43.787
lclavicle 8.82604e-014 -5.80451e-014
lhumerus -39.2281 -37.7039 103.193
lradius 100.42
lwrist -28.1925
lhand -48.2856 11.3128
lfingers 7.12502
lthumb -20.9429 40.2022
rfemur -117.472 -63.6901 56.0976
rtibia 148.899
rfoot -21.0703 30.9827
rtoes 11.9844
lfemur -99.5605 48.8501 -25.5082
ltibia 147.283
lfoot -31.7575 -24.2955
ltoes -23.8068
1116
root 10.5147 8.57103 -7.04003 185.353 46.7046 186.715
lowerback 34.5812 5.08714 2.46478
upperback 10.1674 9.61577 3.3472
thorax -6.37606 5.37731 -1.28288
lowerneck -10.3492 -8.40989 -13.6627
upperneck 34.055 -7.89525 4.70596
head 14.2575 -3.85767 3.21525
rclavicle 1.24042e-013 -5.96354e-014
rhumerus 9.64529 -16.2041 -93.4234
rradius 16.4229
rwrist 29.7232
rhand -49.666 -17.226
rfingers 7.12502
rthumb -22.2685 -45.963
lclavicle 1.24042e-013 -5.96354e-014
lhumerus -39.1096 -37.4388 103.084
lradius 99.9749
lwrist -28.1206
lhand -48.1788 11.0213
lfingers 7.12502
lthumb -20.8402 39.9221
rfemur -114.645 -63.0817 53.4145
rtibia 147.925
rfoot -19.9737 32.1346
rtoes 16.5795
lfemur -97.887 46.2386 -24.7105
ltibia 146.038
lfoot -30.5978 -24.03
ltoes -21.8179
1117
root 10.4891 8.7151 -7.01866 185.183 46.5792 186.369
lowerback 34.7745 4.99356 2.40312
upperback 10.1398 9.48732 3.33134
thorax -6.48368 5.31233 -1.24307
lowerneck -10.5465 -8.41455 -13.4935
upperneck 34.1404 -7.82923 4.44979
head 14.3095 -3.83806 3.08872
rclavicle 1.27222e-014 -5.56597e-015
rhumerus 9.74365 -15.9482 -93.2643
rradius 16.699
rwrist 29.5675
rhand -48.5712 -18.1061
rfingers 7.12502
rthumb -21.2172 -46.965
lclavicle 1.27222e-014 -5.56597e-015
lhumerus -38.9842 -37.3221 103.027
lradius 99.4791
lwrist -27.9437
lhand -48.3311 10.854
lfingers 7.12502
lthumb -20.9865 39.7385
rfemur -112.705 -63.9974 51.6042
rtibia 147.261
rfoot -19.4038 33.9916
rtoes 20.8161
lfemur -96.2766 43.9613 -23.9899
ltibia 144.83
lfoot -29.9065 -23.4818
ltoes -21.8417
1118
root 10.4626 8.85888 -7.001 185.404 46.4034 186.478
lowerback 34.9246 4.82988 2.71032
upperback 10.0474 9.3942 3.38412
thorax -6.60821 5.26022 -1.33186
lowerneck -10.3404 -8.34837 -13.3649
upperneck 33.745 -7.76603 4.24506
head 14.0564 -3.82693 2.98943
rclavicle -2.70347e-014 1.1609e-013
rhumerus 9.85755 -15.9683 -93.1534
rradius 16.9046
rwrist 29.6704
rhand -48.5179 -16.594
rfingers 7.12502
rthumb -21.1659 -45.4585
lclavicle -2.70347e-014 1.1609e-013
lhumerus -38.9215 -37.321 103.011
lradius 99.0053
lwrist -27.811
lhand -48.4496 11.1222
lfingers 7.12502
lthumb -21.1004 39.9941
rfemur -109.345 -64.4172 48.6231
rtibia 146.564
rfoot -18.2118 36.1112
rtoes 25.9932
lfemur -95.2145 42.2374 -23.3174
ltibia 143.686
lfoot -29.4197 -23.1413
ltoes -21.9577
1119
root 10.432 9.01857 -6.98371 185.733 46.3604 186.69
lowerback 35.015 4.69797 3.02531
upperback 9.98465 9.34079 3.42521
thorax -6.67511 5.22967 -1.44208
lowerneck -10.3028 -8.26121 -13.4592
upperneck 33.5024 -7.70103 4.3746
head 13.9417 -3.80047 3.06387
rclavicle 1.55847e-013 -1.35174e-013
rhumerus 10.0637 -15.8693 -93.1077
rradius 17.136
rwrist 29.7349
rhand -49.3845 -12.0217
rfingers 7.12502
rthumb -21.9982 -40.7907
lclavicle 1.55847e-013 -1.35174e-013
lhumerus -38.7413 -37.253 102.917
lradius 98.5165
lwrist -27.572
lhand -48.5411 11.2902
lfingers 7.12502
lthumb -21.1883 40.1523
rfemur -105.817 -61.0611 46.3212
rtibia 144.879
rfoot -18.5109 34.0462
rtoes 23.4958
lfemur -94.1689 40.7029 -22.663
ltibia 142.431
lfoot -28.7179 -22.9324
ltoes -22.0485
1120
root 10.4028 9.18093 -6.96427 185.693 46.3306 186.406
lowerback 35.0876 4.63759 2.97013
upperback 9.91595 9.23912 3.42747
thorax -6.7863 5.17042 -1.38832
lowerneck -10.4461 -8.23887 -13.5121
upperneck 33.5567 -7.62394 4.33365
head 13.9912 -3.77806 3.06596
rclavicle -1.59028e-014 -7.95139e-015
rhumerus 10.1399 -15.235 -92.8931
rradius 17.5156
rwrist 29.2932
rhand -49.3629 -9.86965
rfingers 7.12502
rthumb -21.9775 -38.6411
lclavicle -1.59028e-014 -7.95139e-015
lhumerus -38.5608 -37.1188 102.866
lradius 98.0345
lwrist -27.0644
lhand -48.2638 10.8002
lfingers 7.12502
lthumb -20.9219 39.6919
rfemur -104.408 -55.4077 47.2262
rtibia 142.332
rfoot -24.0749 24.5811
rtoes -3.1369
lfemur -92.817 38.6952 -22.2284
ltibia 141.074
lfoot -28.0839 -22.24
ltoes -22.806
1121
root 10.3756 9.34593 -6.94738 185.365 46.3601 185.804
lowerback 35.2051 4.64057 2.76192
upperback 9.84865 9.15793 3.36252
thorax -6.91988 5.12025 -1.33686
lowerneck -10.5014 -8.25804 -13.3829
upperneck 33.4703 -7.61463 4.10282
head 13.9448 -3.78807 2.94769
rclavicle 1.35174e-014 2.70347e-014
rhumerus 10.2519 -14.9497 -92.7948
rradius 17.9004
rwrist 29.1472
rhand -48.5532 -11.2251
rfingers 7.12502
rthumb -21.1999 -40.0859
lclavicle 1.35174e-014 2.70347e-014
lhumerus -38.3828 -37.0952 102.775
lradius 97.5679
lwrist -26.7474
lhand -47.7767 10.7852
lfingers 7.12502
lthumb -20.4538 39.7279
rfemur -102.349 -54.3691 45.0966
rtibia 141.046
rfoot -23.6871 25.0809
rtoes -2.95453
lfemur -91.2573 36.7305 -22.0185
ltibia 139.637
lfoot -27.4415 -21.5935
ltoes -22.8402
1122
root 10.3465 9.5073 -6.93613 185.032 46.4402 185.26
lowerback 35.3138 4.58097 2.67625
upperback 9.8008 9.03329 3.21131
thorax -6.99864 5.05551 -1.41668
lowerneck -10.51 -8.22348 -13.3224
upperneck 33.3396 -7.61546 4.13636
head 13.8839 -3.78097 2.94764
rclavicle 5.56597e-015 8.74653e-014
rhumerus 10.3706 -14.363 -92.818
rradius 18.3051
rwrist 28.5218
rhand -47.8139 -14.2501
rfingers 7.12502
rthumb -20.4895 -43.189
lclavicle 5.56597e-015 8.74653e-014
lhumerus -38.2193 -37.0485 102.569
lradius 97.1466
lwrist -26.6496
lhand -47.6441 11.1232
lfingers 7.12502
lthumb -20.3264 40.0795
rfemur -100.509 -53.3825 43.2767
rtibia 139.669
rfoot -23.4664 25.4271
rtoes -3.26627
lfemur -89.8783 35.0854 -21.8759
ltibia 138.242
lfoot -26.7109 -21.3387
ltoes -21.9811
1123
root 10.3206 9.67103 -6.91975 185.096 46.496 185.181
lowerback 35.4115 4.52946 2.77142
upperback 9.6729 8.99681 3.17935
thorax -7.03371 5.0317 -1.45916
lowerneck -10.6505 -8.23411 -13.4684
upperneck 33.4114 -7.66376 4.38226
head 13.9726 -3.79053 3.06154
rclavicle -5.96354e-014 9.85972e-014
rhumerus 10.4705 -13.7153 -92.7396
rradius 18.7701
rwrist 27.8735
rhand -46.8454 -15.7246
rfingers 7.12502
rthumb -19.5587 -44.7608
lclavicle -5.96354e-014 9.85972e-014
lhumerus -38.0428 -36.999 102.512
lradius 96.5848
lwrist -26.4185
lhand -47.8865 11.3251
lfingers 7.12502
lthumb -20.5593 40.2564
rfemur -98.4205 -51.9854 41.7501
rtibia 138.197
rfoot -23.3144 25.6557
rtoes -3.36989
lfemur -88.794 33.8334 -21.3938
ltibia 136.881
lfoot -25.7483 -21.6194
ltoes -20.7788
1124
root 10.2964 9.83796 -6.90076 185.173 46.5755 185.075
lowerback 35.449 4.52014 2.77382
upperback 9.57172 8.96921 3.18294
thorax -7.15932 5.0036 -1.45823
lowerneck -10.6229 -8.23544 -13.2238
upperneck 33.2367 -7.6682 4.11861
head 13.8598 -3.79845 2.90903
rclavicle 3.97569e-014 2.54444e-014
rhumerus 10.3762 -12.5663 -92.4501
rradius 19.4442
rwrist 26.3777
rhand -45.9493 -13.9636
rfingers 7.12502
rthumb -18.6969 -43.0851
lclavicle 3.97569e-014 2.54444e-014
lhumerus -37.9707 -36.9597 102.546
lradius 95.911
lwrist -26.7412
lhand -48.261 12.4935
lfingers 7.12502
lthumb -20.9192 41.3855
rfemur -96.3591 -50.4693 40.2153
rtibia 136.744
rfoot -23.1403 25.9509
rtoes -3.33122
lfemur -87.8003 32.6876 -21.0239
ltibia 135.495
lfoot -24.9664 -21.5978
ltoes -20.9383
1125
root 10.2692 10.0053 -6.88865 185.203 46.5867 184.887
lowerback 35.4106 4.42756 2.75772
upperback 9.49245 8.83024 3.20006
thorax -7.24063 4.92584 -1.38598
lowerneck -10.4835 -8.14184 -12.5878
upperneck 32.7125 -7.50834 3.32075
head 13.5026 -3.75873 2.50246
rclavicle -1.59028e-015 8.11041e-014
rhumerus 10.2535 -11.1523 -92.1145
rradius 20.1067
rwrist 24.6123
rhand -45.2581 -13.0368
rfingers 7.12502
rthumb -18.032 -42.2209
lclavicle -1.59028e-015 8.11041e-014
lhumerus -37.9355 -36.8275 102.699
lradius 95.0475
lwrist -28.0014
lhand -49.3263 15.6204
lfingers 7.12502
lthumb -21.9423 44.396
rfemur -94.539 -49.2367 38.79
rtibia 135.264
rfoot -22.7975 26.462
rtoes -2.50972
lfemur -86.8323 31.3581 -20.7365
ltibia 134.078
lfoot -23.7796 -21.9559
ltoes -19.7727
1126
root 10.2412 10.1746 -6.87985 185.302 46.5859 184.831
lowerback 35.3618 4.31857 2.88958
upperback 9.44976 8.72759 3.19811
thorax -7.25528 4.87226 -1.41664
lowerneck -10.6578 -8.16587 -12.908
upperneck 32.7379 -7.63329 3.82855
head 13.6057 -3.79465 2.73241
rclavicle -6.83819e-014 -6.04305e-014
rhumerus 10.3339 -10.1555 -91.9081
rradius 20.5614
rwrist 23.0973
rhand -44.5274 -13.2339
rfingers 7.12502
rthumb -17.3289 -42.4814
lclavicle -6.83819e-014 -6.04305e-014
lhumerus -37.6502 -36.7737 102.565
lradius 94.5369
lwrist -27.549
lhand -48.9262 15.7663
lfingers 7.12502
lthumb -21.5581 44.5865
rfemur -92.7414 -47.9934 37.6632
rtibia 133.671
rfoot -22.9284 26.4865
rtoes -3.87194
lfemur -85.8649 30.1344 -20.3967
ltibia 132.64
lfoot -22.8711 -22.0967
ltoes -19.5736
